# xmcd
#
# Track frame offsets:
#	150
#	21000
#	33867
#	49440
#	65852
#	84090
#	106737
#	118945
#	136397
#	157822
#	180865
#	200802
#
# Disc length: 2831 seconds
#
# Revision: 2
# Processed by: cddbd v1.5.2PL0 Copyright (c) Steve Scherf et al.
# Submitted via: audiograbber 1.82.02
#
DISCID=9a0b0d0c
DTITLE=Various Artist - The Rhythm and The Blues
DYEAR=1991
DGENRE=Blues
TTITLE0=Clarence Carter - Strokin'
TTITLE1=Jimmy Reed - Big Boss Man
TTITLE2=Johnnie Taylor - Cheaper To Keeper
TTITLE3=Bobby Womack - That's The Way I Feel About Cha'
TTITLE4=Issac Hayes - I Stand Accused
TTITLE5=Betty Wright - No Pain, No Gain
TTITLE6=Aretha Franklin - Natural Woman
TTITLE7=Johnnie Taylor - Everything's Out In The Open
TTITLE8=Shirley Brown and Bobby Womack - Ain't Nothin' Like The Lovin' We Got
TTITLE9=Little Milton - Annie Mae's Cafe
TTITLE10=Denise LaSalle - Down Home Blues
TTITLE11=Albert King - Crosscut Saw
EXTD=
EXTT0=
EXTT1=
EXTT2=
EXTT3=
EXTT4=
EXTT5=
EXTT6=
EXTT7=
EXTT8=
EXTT9=
EXTT10=
EXTT11=
PLAYORDER=
